# xmcd CD database file
#
# Track frame offsets:
#	150
#	10715
#	23320
#	36802
#	47842
#	63805
#	79212
#	97497
#	111485
#	130122
#	156530
#	179312
#	199022
#	214035
#	231447
#	247235
#	273627
#
# Disc length: 3847 seconds
#
# Revision: 6
# Processed by: cddbd v1.5.1PL0 Copyright (c) Steve Scherf et al.
# Submitted via: CDex 1.51
#
DISCID=f40f0511
DTITLE=Louis Armstrong - Sings - Back Through The Years - Disc 1
DYEAR=2000
DGENRE=Jazz
TTITLE0=What A Wonderful World
TTITLE1=Cabaret
TTITLE2=Moon River
TTITLE3=Hello Dolly!
TTITLE4=Memories Of You
TTITLE5=Georgia On My Mind
TTITLE6=When You're Smiling (The Whole World Smiles With You)
TTITLE7=Some Of These Days
TTITLE8=Exactly Like You
TTITLE9=On The Sunny Side Of The Street
TTITLE10=Body And Soul
TTITLE11=I Can't Give You Anything But Love
TTITLE12=If I Could Be With You (One Hour Tonight)
TTITLE13=Lazy River
TTITLE14=I Can't Believe That You're In Love With Me
TTITLE15=Basin Street Blues
TTITLE16=The Gypsy
EXTD=A Centennial Celebration - MCA - DECCA YEAR: 2000
EXTT0=
EXTT1=
EXTT2=
EXTT3=
EXTT4=
EXTT5=
EXTT6=
EXTT7=
EXTT8=
EXTT9=
EXTT10=
EXTT11=
EXTT12=
EXTT13=
EXTT14=
EXTT15=
EXTT16=
PLAYORDER=
